<?xml version="1.0" standalone="no"?>
<!DOCTYPE svg PUBLIC "-//W3C//DTD SVG 20010904//EN"
 "http://www.w3.org/TR/2001/REC-SVG-20010904/DTD/svg10.dtd">
<svg version="1.0" xmlns="http://www.w3.org/2000/svg"
 width="452.000000pt" height="452.000000pt" viewBox="0 0 452.000000 452.000000"
 preserveAspectRatio="xMidYMid meet">

<g transform="translate(0.000000,452.000000) scale(0.100000,-0.100000)"
fill="#000000" stroke="none">
<path d="M2167 3929 c-20 -11 -49 -38 -65 -61 l-27 -42 -3 -419 -3 -419 -27 7
c-15 3 -104 9 -198 12 -200 6 -321 -9 -470 -58 -290 -97 -472 -289 -551 -585
-24 -91 -27 -114 -27 -294 0 -179 3 -203 27 -295 102 -383 368 -582 849 -634
210 -23 723 1 845 40 42 13 99 78 113 128 7 27 9 421 8 1273 l-3 1233 -25 43
c-14 26 -42 54 -66 68 -38 23 -50 24 -190 24 -129 -1 -154 -4 -187 -21z m-154
-1410 l57 -12 0 -443 0 -443 -57 -12 c-78 -16 -245 -13 -316 6 -131 34 -226
114 -267 223 -32 85 -46 224 -33 325 27 201 111 304 283 349 77 20 250 23 333
7z"/>
<path d="M3105 3926 c-23 -14 -51 -43 -65 -68 -22 -38 -25 -58 -28 -163 -4
-136 6 -189 45 -236 47 -56 91 -69 238 -69 147 0 191 13 238 69 41 49 49 93
46 237 -4 123 -6 133 -32 172 -46 70 -82 82 -254 82 -139 0 -151 -2 -188 -24z"/>
<path d="M3130 2999 c-32 -13 -77 -56 -98 -94 -15 -27 -17 -110 -22 -850 l-5
-820 -27 -80 c-15 -44 -44 -109 -65 -145 -47 -79 -167 -207 -251 -267 -34 -25
-69 -54 -77 -66 -19 -27 -19 -77 0 -103 8 -12 91 -56 187 -100 216 -97 237
-99 350 -35 249 142 407 420 448 786 15 133 13 1612 -2 1656 -15 46 -43 80
-86 106 -34 21 -49 23 -182 22 -80 0 -156 -5 -170 -10z"/>
</g>
</svg>
