<?xml version="1.0" standalone="no"?>
<!DOCTYPE svg PUBLIC "-//W3C//DTD SVG 20010904//EN"
 "http://www.w3.org/TR/2001/REC-SVG-20010904/DTD/svg10.dtd">
<svg version="1.0" xmlns="http://www.w3.org/2000/svg"
 width="136.000000pt" height="166.000000pt" viewBox="0 0 136.000000 166.000000"
 preserveAspectRatio="xMidYMid meet">

<g transform="translate(0.000000,166.000000) scale(0.100000,-0.100000)"
fill="#000000" stroke="none">
<path d="M575 1625 c17 -13 34 -28 39 -33 4 -6 17 -19 27 -31 19 -21 19 -21
-1 -21 -11 0 -37 7 -56 15 -19 8 -39 14 -42 12 -4 -1 -21 10 -37 26 -16 15
-34 27 -40 27 -5 0 -3 -5 5 -10 8 -5 12 -10 7 -10 -4 0 -1 -13 8 -30 22 -42
22 -43 3 -46 -10 -1 -18 2 -18 7 0 12 -56 11 -102 -2 -45 -12 -50 -29 -10 -29
16 0 37 -9 47 -20 18 -20 17 -20 -13 -20 -18 0 -32 -4 -32 -10 0 -5 -6 -7 -14
-4 -8 3 -25 -5 -38 -18 -13 -13 -26 -23 -30 -23 -5 0 -8 -4 -7 -9 0 -5 -6 -13
-15 -18 -9 -5 -14 -13 -11 -19 4 -5 1 -9 -5 -9 -7 0 -10 -6 -7 -14 3 -8 1 -17
-6 -20 -9 -3 -8 -5 1 -5 7 -1 15 5 18 13 8 20 35 8 32 -13 -2 -9 -10 -22 -18
-29 -13 -12 -13 -13 0 -7 8 4 4 -3 -9 -15 -14 -12 -31 -29 -39 -38 -7 -9 -11
-11 -7 -4 3 6 -10 2 -30 -10 l-37 -21 23 -17 22 -18 -29 -28 c-16 -16 -28 -32
-26 -36 1 -5 -3 -8 -10 -8 -6 0 -9 -3 -5 -6 3 -4 0 -12 -8 -20 -18 -18 -38
-145 -30 -192 4 -25 -1 -58 -14 -102 -30 -95 -27 -149 10 -221 27 -51 30 -64
21 -85 -9 -18 -19 -24 -44 -24 -23 0 -29 -3 -21 -11 16 -16 80 -13 107 4 l23
16 23 -85 c16 -60 27 -83 36 -80 8 3 17 -1 21 -8 5 -8 31 -32 59 -54 58 -46
82 -89 65 -120 -6 -12 -11 -23 -11 -26 0 -10 35 7 57 27 l22 19 61 -52 c33
-29 62 -51 64 -49 3 2 -2 31 -9 64 -8 32 -13 60 -11 62 1 1 34 -27 73 -62 39
-36 75 -65 79 -65 5 0 39 30 76 67 38 37 68 63 68 58 0 -6 -6 -36 -14 -67 -7
-32 -11 -58 -8 -58 3 0 26 17 51 38 65 54 66 55 103 32 44 -27 73 -27 58 -1
-24 46 -13 80 52 147 47 49 64 61 74 53 10 -8 15 -4 20 18 4 15 27 66 51 113
23 46 43 93 43 105 0 18 2 18 23 -7 23 -28 67 -47 67 -29 0 5 -6 14 -14 18
-30 18 -37 51 -25 112 15 71 2 164 -32 238 -17 37 -23 67 -23 132 -1 58 -5 86
-14 89 -6 2 -10 8 -6 13 3 5 0 9 -6 9 -6 0 -8 5 -5 10 3 6 1 10 -5 10 -6 0 -9
4 -5 9 3 6 -2 14 -11 19 -15 8 -15 10 2 16 9 4 22 2 27 -3 5 -5 16 -7 25 -3
11 4 14 1 9 -11 -3 -9 -3 -18 1 -21 4 -3 9 4 9 15 1 10 -7 24 -18 29 -11 6
-17 15 -14 21 4 5 2 8 -3 7 -5 -2 -19 8 -31 22 -13 14 -20 18 -16 10 4 -8 -2
-4 -13 9 -10 13 -30 33 -43 43 -13 11 -17 17 -9 13 10 -4 9 -2 -2 8 -10 8 -15
17 -11 20 3 4 1 7 -6 7 -7 0 -10 4 -6 9 3 5 -2 17 -11 25 -8 9 -12 16 -8 16 3
0 1 7 -6 15 -7 8 -16 13 -20 10 -4 -3 -11 2 -14 11 -3 8 -10 12 -16 9 -5 -3
-10 -1 -10 6 0 7 -3 9 -7 6 -3 -4 -12 -2 -19 3 -6 6 -16 10 -20 9 -5 -1 -21
-1 -36 0 l-26 1 29 29 c42 43 36 56 -13 27 -69 -40 -82 -38 -81 9 1 34 -19 95
-32 95 -2 0 -2 -18 -1 -39 2 -30 0 -38 -10 -34 -8 3 -12 9 -9 13 13 21 -112
109 -135 95 -5 -3 -11 -1 -15 5 -3 5 -27 10 -53 10 l-47 -1 30 -24z m75 -490
c27 -14 33 -14 60 0 16 8 35 15 43 15 7 0 46 -22 86 -50 40 -27 81 -50 91 -50
24 0 33 -40 14 -61 -14 -15 -14 -21 0 -54 28 -67 22 -94 -34 -146 l-50 -47 25
-59 c31 -68 27 -90 -19 -121 l-34 -23 -71 32 c-67 30 -71 34 -71 64 0 28 8 39
55 75 31 24 54 48 52 54 -2 6 -12 35 -21 64 -10 28 -22 52 -27 52 -5 0 -9 5
-9 11 0 6 9 8 20 4 18 -6 18 -4 -4 18 -27 27 -42 68 -33 91 14 35 140 44 166
12 9 -11 4 -15 -26 -19 -21 -4 -60 -13 -87 -20 -46 -13 -47 -14 -30 -31 28
-28 102 -16 131 21 l23 28 0 -32 c0 -42 -30 -73 -72 -74 -18 0 -27 -3 -20 -6
7 -3 28 -2 47 1 29 6 36 13 50 54 9 26 21 55 26 64 16 31 10 35 -55 42 -90 9
-144 -1 -163 -31 -15 -22 -15 -27 2 -61 11 -20 20 -46 20 -57 1 -11 5 -40 9
-65 l7 -45 -75 0 c-73 0 -75 1 -78 25 -3 22 -5 20 -19 -16 l-16 -41 53 -42
c46 -36 54 -47 54 -75 0 -30 -5 -34 -69 -65 l-69 -34 -29 21 c-58 41 -59 46
-28 118 l28 67 -51 47 c-57 53 -62 73 -36 135 12 30 13 44 5 62 -18 39 -14 63
10 63 11 0 53 23 92 50 39 28 77 50 84 50 8 0 27 -7 43 -15z m170 -612 c7 -7
-50 -109 -72 -129 -19 -18 -19 -18 -13 9 6 23 5 26 -10 20 -11 -4 -22 0 -30
10 -11 15 -14 16 -25 2 -8 -9 -21 -13 -32 -9 -17 5 -19 3 -13 -18 7 -22 5 -21
-24 7 -16 17 -37 47 -46 68 l-15 38 70 33 71 34 67 -30 c37 -17 69 -33 72 -35z"/>
<path d="M463 1043 c-48 -5 -50 -8 -28 -49 8 -16 15 -36 15 -44 0 -8 5 -22 10
-30 6 -10 8 1 4 35 -5 41 -3 53 11 65 23 19 127 19 149 1 24 -20 19 -65 -11
-102 -25 -29 -26 -31 -5 -20 49 26 67 119 25 135 -23 9 -120 14 -170 9z"/>
<path d="M477 980 c11 -42 106 -65 138 -33 16 15 14 17 -31 30 -27 7 -63 16
-81 19 -29 6 -31 5 -26 -16z"/>
<path d="M518 883 c12 -2 30 -2 40 0 9 3 -1 5 -23 4 -22 0 -30 -2 -17 -4z"/>
</g>
</svg>
