<svg
      xmlns="http://www.w3.org/2000/svg"
      viewBox="0 0 24 24"
    >
      <path d="M24 5.63v12.735c0 3.11-2.525 5.635-5.635 5.635H5.63C2.52 24 0 21.475 0 18.365V5.63C0 2.52 2.52 0 5.63 0h12.735c1.66 0 3.15.715 4.185 1.86.235.26.445.54.625.84.09.145.17.295.25.445.165.34.3.695.395 1.07.05.185.09.38.115.575.045.27.065.555.065.84zM6.81 8.985l3.96 3.96.735-.735-3.96-3.96-.735.735zm7.195 7.2l.735-.73-1.08-1.08 10.16-10.16a5.6 5.6 0 0 0-.395-1.07L12.195 14.375l1.81 1.81zm-7.545-6.85l-.73.73 7.2 7.2.73-.735-2.16-2.155L23.175 2.7a5.65 5.65 0 0 0-.625-.84L10.77 13.64l-4.31-4.305zm17.475-4.545L14.35 14.375l.735.73 8.915-8.915v-.56c0-.285-.02-.57-.065-.84zM12.58 11.135l-3.96-3.96-.735.735 3.96 3.96.735-.735zm8.08 6.425a3.1 3.1 0 0 1-3.1 3.1H6.44a3.1 3.1 0 0 1-3.1-3.1V6.44a3.1 3.1 0 0 1 3.1-3.105H16.8V2.3H6.44a4.14 4.14 0 0 0-4.14 4.14v11.12A4.14 4.14 0 0 0 6.44 21.7h11.12a4.14 4.14 0 0 0 4.14-4.14v-1.755h-1.035v1.755z" />
    </svg>